<svg xmlns="http://www.w3.org/2000/svg" width="29.704" height="29.854" viewBox="0 0 29.704 29.854"><title>google</title><g id="Layer_2" data-name="Layer 2"><g id="Layer_1-2" data-name="Layer 1"><path id="Union_21" data-name="Union 21" d="M1.65,21.733a14.63,14.63,0,0,1,0-13.5,15.11,15.11,0,0,1,20.5-6.5,21.118,21.118,0,0,1,3.1,2.1l-4.4,4.4a8.1,8.1,0,0,0-5.7-2.3,9.136,9.136,0,0,0-8.5,6.3v-.1a9.3,9.3,0,0,0-.5,2.9,9.3,9.3,0,0,0,.5,2.9c-.1.1-.6.4-1.2.9a7.7,7.7,0,0,1,1.3-.9,8.922,8.922,0,0,0,8.4,6.1,8.985,8.985,0,0,0,5.2-1.5h.1a7.516,7.516,0,0,0,2.9-4.6h-8.2v-5.9h14.2a15.791,15.791,0,0,1-4,14.2l-.1.1-.1-.1a14,14,0,0,1-10.1,3.6A14.6,14.6,0,0,1,1.65,21.733Zm5-9.7c-.2-.1-4.5-3.5-5-3.9.4.3,4.8,3.8,5,3.9Z" fill="#fff"/></g></g></svg>