<svg xmlns="http://www.w3.org/2000/svg" width="32.7" height="26.948" viewBox="0 0 32.7 26.948"><title>twitter</title><g id="Layer_2" data-name="Layer 2"><g id="Layer_1-2" data-name="Layer 1"><path id="Path_43" data-name="Path 43" d="M29.5,6.742c0,.3.2.6.2.9,0,9-7.7,19.3-19.2,19.3h0a18.61,18.61,0,0,1-10.5-3c.5,0,1.1.2,1.6.2a14.391,14.391,0,0,0,8.5-3,6.54,6.54,0,0,1-6.3-4.7,4.3,4.3,0,0,0,2.5-.2c-3.1-.6-6-3.5-6-6.6v-.2a8.988,8.988,0,0,0,3.6.8,6.646,6.646,0,0,1-2.2-9.1,19.776,19.776,0,0,0,14.1,7.1,6.846,6.846,0,0,1,2-6.4,6.672,6.672,0,0,1,9.5.3l.1.1a14.586,14.586,0,0,0,4.4-1.6,6.639,6.639,0,0,1-3,3.8,16.252,16.252,0,0,0,3.9-1.3A12.214,12.214,0,0,1,29.5,6.742Z" fill="#fff"/></g></g></svg>